<svg xmlns="http://www.w3.org/2000/svg" height="48" width="48"><path d="M21.75 9.95V.9h4.55v9.05ZM35.5 15.7l-3.2-3.25 6.4-6.4 3.2 3.25Zm2.55 10.55V21.7h9.05v4.55Zm.7 15.65-6.4-6.45 3.25-3.25 6.4 6.45ZM12.5 15.7 6.1 9.3l3.2-3.15 6.4 6.35ZM12 38.2h8.95q1.3 0 2.225-.925t.925-2.225q0-1.4-.9-2.4t-2.25-1h-2.6l-1.1-2.45q-.7-1.55-2.125-2.45-1.425-.9-3.125-.9-2.55 0-4.375 1.775Q5.8 29.4 5.8 31.95q0 2.6 1.8 4.425Q9.4 38.2 12 38.2Zm0 4.55q-4.45 0-7.6-3.15-3.15-3.15-3.15-7.6 0-4.6 3.325-7.7 3.325-3.1 7.975-3.05 2.9 0 5.2 1.675 2.3 1.675 3.6 4.225 3.05 0 5.175 2.2t2.125 5.25q-.05 3.3-2.25 5.725T21 42.75Zm16.65-8.15q-.4-1.05-.85-2.075-.45-1.025-.85-2.175 1.9-.75 3.025-2.525T31.1 24q0-2.95-2.075-5.025T24 16.9q-2.6 0-4.575 1.625T17.1 22.7l-2.3-.7q-1.15-.35-2.25-.75.85-3.95 4.1-6.425Q19.9 12.35 24 12.35q4.85 0 8.25 3.4 3.4 3.4 3.4 8.3 0 3.45-1.9 6.325t-5.1 4.225ZM24.05 24Z"/></svg>