<svg xmlns="http://www.w3.org/2000/svg" height="48" width="48"><path d="M28.25 46q-.9.4-1.825.1-.925-.3-1.325-1.2L21.65 38q-.4-.85-.1-1.75.3-.9 1.2-1.35.85-.4 1.775-.125.925.275 1.325 1.175l3.45 6.9q.4.9.15 1.825-.25.925-1.2 1.325Zm12-.05q-.9.4-1.825.1-.925-.3-1.325-1.2l-3.45-6.9q-.4-.85-.1-1.75.3-.9 1.2-1.35.85-.4 1.775-.125.925.275 1.325 1.175l3.45 6.9q.4.9.15 1.825-.25.925-1.2 1.325Zm-24 0q-.9.4-1.825.125Q13.5 45.8 13.1 44.9L9.65 38q-.4-.85-.075-1.75T10.8 34.9q.85-.4 1.775-.15.925.25 1.325 1.15l3.45 6.95q.4.9.125 1.8t-1.225 1.3ZM14.5 31.2q-4.65 0-7.95-3.325t-3.3-7.925q0-4.2 2.875-7.475Q9 9.2 13.35 8.75q1.75-2.8 4.525-4.475Q20.65 2.6 24 2.6q4.65 0 7.875 2.9 3.225 2.9 4.175 7.2 4.1.4 6.425 3.05t2.325 6.2q0 3.8-2.7 6.525-2.7 2.725-6.6 2.725Zm0-4.6h21q1.95 0 3.35-1.35 1.4-1.35 1.4-3.3 0-2-1.4-3.375T35.5 17.2h-3.75v-2.25q0-3.2-2.25-5.475Q27.25 7.2 24 7.2q-2.3 0-4.225 1.275Q17.85 9.75 16.95 11.8l-.6 1.4h-1.9q-2.8.1-4.725 2.05Q7.8 17.2 7.8 19.95t1.95 4.7q1.95 1.95 4.75 1.95Zm9.5-9.65Z"/></svg>