<svg xmlns="http://www.w3.org/2000/svg" height="48" width="48"><path d="M26.5 19.3v-3.95h13.05v3.95Zm0-6.85V8.4h17.4v4.05ZM13.85 42.9q-4.25 0-7.2-2.95t-2.95-7.2q0-2.5 1.2-4.725Q6.1 25.8 8.15 24.4V10.65q0-2.3 1.65-4 1.65-1.7 4-1.7t4.025 1.7q1.675 1.7 1.675 4V24.4q2.05 1.4 3.25 3.625 1.2 2.225 1.2 4.725 0 4.25-2.95 7.2t-7.15 2.95ZM8.3 32.75h11.1q0-2-1.025-3.7-1.025-1.7-2.925-2.45h-.55V10.65q0-.45-.325-.75t-.775-.3q-.45 0-.725.3-.275.3-.275.75V26.6h-.5q-2.05.85-3.025 2.55-.975 1.7-.975 3.6Z"/></svg>