<svg xmlns="http://www.w3.org/2000/svg" height="48" width="48"><path d="M21.75 9.95V.9h4.55v9.05ZM35.5 15.7l-3.25-3.25 6.45-6.4L42 9.2Zm2.55 10.55V21.7h9.05v4.55Zm-16.3 20.8V38h4.55v9.05Zm-9.25-31.3-6.4-6.4 3.3-3.2 6.35 6.4Zm26.25 26.2-6.5-6.45 3.25-3.25 6.5 6.3ZM.95 26.25V21.7H10v4.55ZM9.4 41.9l-3.3-3.25 6.45-6.45 1.6 1.65 1.7 1.6ZM24 35.6q-4.85 0-8.225-3.375T12.4 24q0-4.9 3.375-8.275T24 12.35q4.9 0 8.275 3.4T35.65 24q0 4.85-3.4 8.225T24 35.6Zm0-4.6q2.95 0 5.025-2.05T31.1 24q0-2.95-2.075-5.025T24 16.9q-2.9 0-4.95 2.075Q17 21.05 17 24q0 2.9 2.05 4.95Q21.1 31 24 31Zm0-7Z"/></svg>